<?xml version="1.0" encoding="UTF-8"?>
<svg id="Layer_2" data-name="Layer 2" xmlns="http://www.w3.org/2000/svg" viewBox="0 0 53.86 53.86">
  <defs>
    <style>
      .cls-1 {
        fill: #fff;
      }
    </style>
  </defs>
  <g id="Calque_1" data-name="Calque 1">
    <circle class="cls-1" cx="48.26" cy="49.58" r="2.04"/>
    <circle class="cls-1" cx="48.26" cy="34.92" r="2.04"/>
    <circle class="cls-1" cx="48.26" cy="20.26" r="5.6"/>
    <circle class="cls-1" cx="33.6" cy="49.58" r="4.28"/>
    <path class="cls-1" d="m25.21,34.92c0-4.64,3.76-8.39,8.39-8.39s8.39,3.76,8.39,8.39-3.76,8.39-8.39,8.39-8.39-3.76-8.39-8.39Z"/>
    <circle class="cls-1" cx="33.6" cy="5.6" r="5.6"/>
    <circle class="cls-1" cx="18.94" cy="49.58" r="4.28"/>
    <path class="cls-1" d="m14.66,34.92c0-2.36,1.92-4.28,4.28-4.28s4.28,1.92,4.28,4.28-1.92,4.28-4.28,4.28-4.28-1.92-4.28-4.28Z"/>
    <path class="cls-1" d="m43.98,5.6c0-2.36,1.92-4.28,4.28-4.28s4.28,1.92,4.28,4.28-1.92,4.28-4.28,4.28-4.28-1.92-4.28-4.28Z"/>
    <circle class="cls-1" cx="18.94" cy="20.26" r="8.39"/>
    <path class="cls-1" d="m16.9,5.6c0-1.13.91-2.04,2.04-2.04s2.04.91,2.04,2.04-.91,2.04-2.04,2.04-2.04-.91-2.04-2.04Z"/>
    <circle class="cls-1" cx="4.28" cy="49.58" r="2.04"/>
    <path class="cls-1" d="m0,34.92c0-2.36,1.92-4.28,4.28-4.28s4.28,1.92,4.28,4.28-1.92,4.28-4.28,4.28-4.28-1.92-4.28-4.28Z"/>
    <circle class="cls-1" cx="4.28" cy="20.26" r="4.28"/>
    <circle class="cls-1" cx="4.28" cy="5.6" r="2.04"/>
    <path class="cls-1" d="m25.21,20.26c0-4.64,3.76-8.39,8.39-8.39s8.39,3.76,8.39,8.39-3.76,8.39-8.39,8.39-8.39-3.76-8.39-8.39Z"/>
  </g>
</svg>